# xmcd
#
# Track frame offsets:
#	150
#	13228
#	25275
#	37652
#	48738
#	60529
#	71737
#	85284
#	96112
#	110677
#	122605
#	137847
#
# Disc length: 2021 seconds
#
# Revision: 1
# Processed by: cddbd v1.4PL0 Copyright (c) Steve Scherf et al.
# Submitted via: audiograbber 1.81.01
#
DISCID=a407e30c
DTITLE=Marino Marini - I Grandi Successi Originali cd2
DYEAR=1900
DGENRE=Pop
TTITLE0=Basta un poco di musica
TTITLE1=Gira Gira Sole
TTITLE2=Tu non sai
TTITLE3=Quando vien la sera
TTITLE4=Piove
TTITLE5=Calcutta
TTITLE6=Quando quando quando
TTITLE7=Il mazzo di mammole
TTITLE8=Buonasera (Signorina)
TTITLE9=I Sign amore
TTITLE10=Vogliamoci tanto bene
TTITLE11=Piccolissima serenata
EXTD=
EXTT0=
EXTT1=
EXTT2=
EXTT3=
EXTT4=
EXTT5=
EXTT6=
EXTT7=
EXTT8=
EXTT9=
EXTT10=
EXTT11=
PLAYORDER=
